<svg width="22" height="22" viewBox="0 0 22 22" fill="none" xmlns="http://www.w3.org/2000/svg">
<path fill-rule="evenodd" clip-rule="evenodd" d="M16.5763 6.5827L2.22504 6.5827C2.3211 6.76876 2.44748 6.94333 2.60419 7.09917L5.42059 9.89999L4.00861 11.3042L1.19221 8.50333C-0.397405 6.92251 -0.397405 4.35949 1.19221 2.77867L3.98633 -1.74248e-07L5.39831 1.40416L2.60419 4.18283C2.43342 4.35265 2.29866 4.54472 2.19991 4.74966L16.5763 4.74966L16.5763 6.5827ZM5.42372 15.4173L19.775 15.4173C19.6789 15.2312 19.5525 15.0567 19.3958 14.9008L16.5794 12.1L17.9914 10.6958L20.8078 13.4967C22.3974 15.0775 22.3974 17.6405 20.8078 19.2213L18.0137 22L16.6017 20.5958L19.3958 17.8172C19.5666 17.6473 19.7013 17.4553 19.8001 17.2503L5.42372 17.2503L5.42372 15.4173Z" fill="black"/>
</svg>
