<svg width="21" height="22" viewBox="0 0 21 22" fill="none" xmlns="http://www.w3.org/2000/svg">
<path fill-rule="evenodd" clip-rule="evenodd" d="M8.08193 4.7436C8.47754 4.64084 8.70903 4.23044 8.59235 3.83871L7.64785 0.667873C7.53686 0.295257 7.15073 0.0774508 6.77442 0.175195C6.3788 0.277953 6.14731 0.688349 6.26399 1.08008L7.20849 4.25092C7.31949 4.62353 7.70562 4.84134 8.08193 4.7436ZM13.9868 1.18872C14.1342 0.805371 13.9322 0.376515 13.5428 0.245984C13.1767 0.123254 12.7788 0.310643 12.6403 0.671088L11.4479 3.77297C11.3005 4.15632 11.5025 4.58518 11.8919 4.71571C12.258 4.83844 12.6559 4.65105 12.7944 4.2906L13.9868 1.18872ZM5.43076 6.60724C5.70094 6.29396 5.64968 5.81746 5.31905 5.56881L2.52558 3.46802C2.2248 3.24182 1.80015 3.2875 1.55436 3.5725C1.28418 3.88578 1.33544 4.36228 1.66607 4.61093L4.45953 6.71172C4.76032 6.93792 5.18496 6.89224 5.43076 6.60724ZM18.3334 5.13307C18.6848 4.91799 18.7818 4.45098 18.5451 4.11377C18.3285 3.80521 17.9093 3.71818 17.5878 3.91498L14.5796 5.75628C14.2282 5.97136 14.1312 6.43837 14.3679 6.77558C14.5845 7.08413 15.0037 7.17117 15.3252 6.97436L18.3334 5.13307ZM4.66758 8.18993C4.23921 8.18993 3.85282 8.36662 3.58553 8.64885C3.55551 8.6677 3.5266 8.68886 3.49909 8.71233L0.459937 11.3043L0.436446 11.3275C-0.477256 12.2287 0.11994 13.8473 1.51935 13.8473H3.20863V18.1949C3.20863 20.2773 4.92538 22 7.08709 22H13.3732C15.5349 22 17.2516 20.2773 17.2516 18.1949V13.8473H19.8738C20.3927 13.8473 20.7654 13.5466 20.9199 13.164C21.0728 12.7855 21.0145 12.32 20.6789 11.989L16.827 8.18993L4.66758 8.18993ZM4.67946 18.1949V9.60035L7.72642 9.60035V20.5896H7.08709C5.77637 20.5896 4.67946 19.5358 4.67946 18.1949ZM13.2618 12.4235L10.3994 9.60035H16.2055L19.0815 12.4369H13.2901C13.2834 12.4369 13.2729 12.4344 13.2618 12.4235ZM9.19725 20.5896V10.4381L12.2072 13.4067C12.4907 13.6863 12.8798 13.8473 13.2901 13.8473H15.7808V18.1949C15.7808 19.5358 14.6839 20.5896 13.3732 20.5896H9.19725ZM1.47557 12.4002C1.46152 12.3667 1.46582 12.3419 1.48187 12.321L3.20863 10.8479V12.4369H1.51935C1.5072 12.4369 1.50099 12.4342 1.49714 12.4316C1.49315 12.4289 1.48449 12.4214 1.47557 12.4002Z" fill="black"/>
</svg>
