<svg width="22" height="16" viewBox="0 0 22 16" fill="none" xmlns="http://www.w3.org/2000/svg">
<path fill-rule="evenodd" clip-rule="evenodd" d="M1.51323 3.93846H20.4868V2.52991C20.4868 1.99718 20.0646 1.55897 19.5362 1.55897H2.46385C1.93539 1.55897 1.51323 1.99718 1.51323 2.52991V3.93846ZM20.4868 13.4701V5.49744H1.51323V13.4701C1.51323 14.0028 1.93539 14.441 2.46384 14.441H19.5362C20.0646 14.441 20.4868 14.0028 20.4868 13.4701ZM8.15804 12.0615H3.84127V10.5026H8.15804V12.0615ZM0 2.52991C0 1.12918 1.10655 0 2.46385 0H19.5362C20.8935 0 22 1.12918 22 2.52991V13.4701C22 14.8708 20.8935 16 19.5362 16H2.46384C1.10655 16 0 14.8708 0 13.4701V2.52991Z" fill="black"/>
</svg>
