<svg width="16" height="16" viewBox="0 0 16 16" fill="none" xmlns="http://www.w3.org/2000/svg">
<path fill-rule="evenodd" clip-rule="evenodd" d="M8.27935 1.33503C8.12507 1.1767 7.87493 1.1767 7.72065 1.33503L2.66666 6.52163V14.3783C2.66666 14.6022 2.84354 14.7837 3.06172 14.7837H5.4321V11.3376C5.4321 10.4419 6.1396 9.71586 7.01234 9.71586H8.98765C9.8604 9.71586 10.5679 10.4419 10.5679 11.3376V14.7837H12.9382C13.1564 14.7837 13.3333 14.6022 13.3333 14.3783V6.52158L8.27935 1.33503ZM9.38271 14.7837V11.3376C9.38271 11.1137 9.20584 10.9321 8.98765 10.9321H7.01234C6.79416 10.9321 6.61728 11.1137 6.61728 11.3376V14.7837H9.38271ZM1.01162 8.2201L1.48148 7.73791V14.3783C1.48148 15.2739 2.18898 16 3.06172 16H12.9382C13.811 16 14.5185 15.2739 14.5185 14.3783V7.73785L14.9884 8.2201C15.2198 8.45759 15.595 8.45759 15.8264 8.2201C16.0579 7.9826 16.0579 7.59755 15.8264 7.36006L9.1174 0.474988C8.50028 -0.15833 7.49972 -0.158329 6.8826 0.474988L0.173566 7.36006C-0.0578555 7.59755 -0.0578555 7.9826 0.173566 8.2201C0.404988 8.45759 0.780197 8.45759 1.01162 8.2201Z" fill="black"/>
</svg>
