<?xml version="1.0" encoding="UTF-8"?>
<svg width="250px" height="164px" viewBox="0 0 250 164" version="1.1" xmlns="http://www.w3.org/2000/svg" xmlns:xlink="http://www.w3.org/1999/xlink">
    <!-- Generator: Sketch 61.2 (89653) - https://sketch.com -->
    <title>marca-h-w</title>
    <desc>Created with Sketch.</desc>
    <g id="Page-1" stroke="none" stroke-width="1" fill="none" fill-rule="evenodd">
        <g id="Desktop-HD" transform="translate(-346.000000, -431.000000)" fill="#FEFEFE">
            <g id="marca-h-w" transform="translate(346.000000, 430.000000)">
                <g id="Group-3" transform="translate(0.000000, 0.285000)">
                    <path d="M4.3394,41.8036 L6.4724,41.4556 L28.2194,149.8816 C27.6864,151.1116 27.3874,152.4656 27.3874,153.8896 C27.3874,159.4646 31.9234,163.9996 37.4984,163.9996 C37.9754,163.9996 38.4424,163.9556 38.9024,163.8906 C39.3614,163.9556 39.8284,163.9996 40.3054,163.9996 C45.8804,163.9996 50.4174,159.4646 50.4174,153.8896 C50.4174,152.7526 50.2194,151.6636 49.8724,150.6426 L49.9024,150.6486 L71.8074,41.4396 L74.0354,41.8036 L78.1534,16.4926 C79.4554,8.4946 74.9364,2.2446 66.9104,0.9386 C63.0844,0.3136 59.5934,1.0066 56.8164,2.9396 C53.9334,4.9446 52.0654,8.1266 51.4134,12.1416 L47.2944,37.4556 L53.2514,38.4166 L57.3684,13.1106 C58.4254,6.6166 63.2004,6.4016 65.9484,6.8456 C70.6914,7.6166 72.9694,10.7806 72.1984,15.5226 L68.0804,40.8316 L70.0414,41.1516 L48.5884,148.1076 C46.7594,145.4936 43.7304,143.7776 40.3054,143.7776 C39.8284,143.7776 39.3614,143.8226 38.9024,143.8866 C38.4424,143.8226 37.9754,143.7776 37.4984,143.7776 C34.2964,143.7776 31.4414,145.2796 29.5874,147.6106 L8.2374,41.1676 L10.2944,40.8316 L6.1764,15.5226 C5.4054,10.7806 7.6834,7.6166 12.4264,6.8456 C15.1724,6.3996 19.9514,6.6166 21.0074,13.1106 L25.1244,38.4166 L31.0804,37.4556 L26.9624,12.1416 C26.3094,8.1266 24.4414,4.9446 21.5594,2.9396 C18.7794,1.0066 15.2874,0.3126 11.4654,0.9386 C3.4384,2.2446 -1.0796,8.4946 0.2214,16.4926 L4.3394,41.8036 Z M38.9024,145.6936 C42.8234,146.3636 45.8214,149.7786 45.8214,153.8896 C45.8214,157.9986 42.8234,161.4136 38.9024,162.0836 C34.9804,161.4136 31.9834,157.9986 31.9834,153.8896 C31.9834,149.7786 34.9804,146.3636 38.9024,145.6936 L38.9024,145.6936 Z M48.6284,153.8896 C48.6284,156.8376 47.0824,159.4276 44.7624,160.9056 C46.5204,159.0856 47.6094,156.6136 47.6094,153.8896 C47.6094,151.1636 46.5204,148.6916 44.7614,146.8716 C47.0824,148.3496 48.6284,150.9396 48.6284,153.8896 L48.6284,153.8896 Z M33.0424,146.8716 C31.2834,148.6916 30.1944,151.1636 30.1944,153.8896 C30.1944,156.6136 31.2834,159.0856 33.0414,160.9056 C30.7214,159.4276 29.1754,156.8376 29.1754,153.8896 C29.1754,152.6126 29.4724,151.4066 29.9884,150.3256 L30.1264,150.2976 L30.0894,150.1156 C30.7684,148.7876 31.7914,147.6686 33.0424,146.8716 L33.0424,146.8716 Z" id="Fill-1"></path>
                </g>
                <path d="M98.8929,139.1569 C98.6039,139.3369 98.0949,139.5069 97.3699,139.6619 C97.0169,139.7339 96.7499,139.7919 96.5649,139.8419 C96.1139,139.9689 95.7929,140.1309 95.6089,140.3299 C95.4219,140.5279 95.3279,140.7919 95.3279,141.1229 C95.3279,141.5309 95.4539,141.8629 95.7099,142.1129 C95.9629,142.3609 96.2989,142.4869 96.7139,142.4869 C97.3559,142.4869 97.8789,142.3029 98.2829,141.9319 C98.6909,141.5639 98.8929,141.0759 98.8929,140.4769 L98.8929,139.1569 Z M103.0359,144.5699 L99.1999,144.5699 C99.1569,144.3849 99.1209,144.1979 99.0879,143.9999 C99.0559,143.8009 99.0269,143.5989 98.9979,143.3859 C98.4709,143.9159 97.9079,144.3059 97.3119,144.5579 C96.7169,144.8149 96.0639,144.9409 95.3499,144.9409 C94.2449,144.9409 93.3689,144.6349 92.7219,144.0249 C92.0759,143.4149 91.7549,142.5919 91.7549,141.5569 C91.7549,140.6039 92.0079,139.8319 92.5099,139.2359 C93.0149,138.6369 93.7759,138.2219 94.8009,137.9799 C95.3639,137.8539 96.0789,137.7169 96.9479,137.5689 C98.2439,137.3559 98.8929,137.0459 98.8929,136.6379 L98.8929,136.3639 C98.8929,136.0319 98.7669,135.7789 98.5179,135.6099 C98.2689,135.4369 97.8969,135.3499 97.4029,135.3499 C96.8649,135.3499 96.4429,135.4579 96.1289,135.6779 C95.8149,135.8949 95.6169,136.2159 95.5409,136.6379 L92.0729,136.6379 C92.2569,135.3419 92.7949,134.3749 93.6859,133.7439 C94.5769,133.1089 95.8439,132.7909 97.4859,132.7909 C98.5069,132.7909 99.3699,132.9139 100.0699,133.1629 C100.7729,133.4079 101.3219,133.7799 101.7149,134.2819 C101.9889,134.6419 102.1849,135.0679 102.2959,135.5659 C102.4079,136.0639 102.4659,136.8619 102.4659,137.9589 L102.4659,142.3179 C102.4659,142.8409 102.5119,143.2489 102.6099,143.5489 C102.7039,143.8479 102.8449,144.0459 103.0359,144.1369 L103.0359,144.5699 Z" id="Fill-4"></path>
                <path d="M111.7425,138.702 C111.7425,137.764 111.5475,137.024 111.1615,136.483 C110.7715,135.938 110.2445,135.667 109.5735,135.667 C108.8625,135.667 108.3105,135.934 107.9135,136.465 C107.5205,136.999 107.3215,137.742 107.3215,138.702 C107.3215,139.745 107.5095,140.535 107.8775,141.076 C108.2495,141.614 108.7945,141.885 109.5125,141.885 C110.2305,141.885 110.7825,141.611 111.1645,141.066 C111.5515,140.521 111.7425,139.73 111.7425,138.702 L111.7425,138.702 Z M103.6235,128.999 L107.3655,128.999 L107.3655,134.527 C107.7445,133.935 108.2315,133.488 108.8195,133.184 C109.4075,132.881 110.0785,132.73 110.8335,132.73 C112.2365,132.73 113.3885,133.3 114.2905,134.444 C115.1925,135.584 115.6435,137.06 115.6435,138.872 C115.6435,140.669 115.1925,142.123 114.2935,143.234 C113.3955,144.342 112.2295,144.898 110.7895,144.898 C110.0505,144.898 109.4045,144.746 108.8525,144.447 C108.2965,144.147 107.8095,143.686 107.3875,143.057 L107.3875,144.57 L103.6235,144.57 L103.6235,128.999 Z" id="Fill-6"></path>
                <path d="M127.7559,133.0764 L127.8199,133.0764 L129.2999,133.0764 L129.2999,129.8214 L133.0639,129.8214 L133.0639,133.0764 L134.9869,133.0764 L134.9869,135.3494 L133.0639,135.3494 L133.0639,140.3294 C133.0639,141.0914 133.1609,141.5924 133.3599,141.8384 C133.5579,142.0874 133.9269,142.2094 134.4709,142.2094 C134.5899,142.2094 134.6839,142.2094 134.7489,142.2054 C134.8179,142.2024 134.8829,142.1954 134.9439,142.1874 L134.9439,144.5914 C134.5509,144.6674 134.1639,144.7284 133.7889,144.7684 C133.4109,144.8114 133.0459,144.8334 132.6929,144.8334 C131.3899,144.8334 130.4979,144.5154 130.0179,143.8764 C129.5379,143.2374 129.2999,141.8774 129.2999,139.7994 L129.2999,135.3494 L126.9769,135.3494 L123.5579,144.5694 L119.7009,144.5694 L115.4389,133.0764 L119.4269,133.0764 L121.6239,141.0804 L123.8539,133.0764 L127.7559,133.0764 Z" id="Fill-8"></path>
                <polygon id="Fill-10" points="146.6348 144.5698 151.2608 144.5698 153.1368 141.4088 155.0588 144.5698 159.7078 144.5698 155.4058 138.5758 159.5168 133.0768 154.8798 133.0768 153.1598 135.8258 151.4928 133.0768 146.8028 133.0768 150.9138 138.5758"></polygon>
                <path d="M142.7772,147.2717 L142.7772,144.8007 L142.7772,142.2507 L142.7772,142.2227 L141.5172,142.2227 L141.5172,142.2137 L141.5102,142.2137 C140.8312,142.2137 140.3192,142.0007 139.9692,141.5747 C139.6192,141.1447 139.3442,140.4797 139.3442,139.6677 L139.3412,137.6007 C139.4102,136.8397 139.6302,136.2557 140.0012,135.8477 C140.3732,135.4397 140.8672,135.2347 141.4882,135.2347 C142.1452,135.2347 142.6612,135.4437 143.0372,135.8587 C143.4152,136.2737 143.6102,136.8507 143.6242,137.5907 L139.8502,137.5997 L139.8502,139.7157 L147.2192,139.7157 C147.2262,139.6437 147.2332,139.5647 147.2362,139.4667 C147.2402,139.3737 147.2402,139.2327 147.2402,139.0487 C147.2402,137.0637 146.7172,135.5047 145.6742,134.3787 C144.6312,133.2497 143.1992,132.6867 141.3732,132.6867 C139.6012,132.6867 138.1972,133.2427 137.1542,134.3497 C136.1112,135.4617 135.5882,136.9697 135.5882,138.8717 C135.5882,140.7407 136.1082,142.2137 137.1432,143.2957 C137.8982,144.0837 138.8572,144.5777 140.0082,144.7917 L140.0082,147.2717 L122.5982,147.2717 L122.5982,151.0137 L160.4022,151.0137 L160.4022,147.2717 L142.7772,147.2717 Z" id="Fill-12"></path>
                <path d="M110.0264,106.8083 C109.6224,107.7393 109.0954,108.5523 108.4444,109.2473 C107.7934,109.9423 107.0194,110.4923 106.1224,110.8963 C105.2254,111.3003 104.2164,111.5013 103.0944,111.5013 C101.5014,111.5013 100.1344,111.1993 98.9894,110.5943 C97.8464,109.9873 96.9084,109.1863 96.1804,108.1873 C95.4504,107.1903 94.9124,106.0563 94.5654,104.7893 C94.2174,103.5223 94.0434,102.2373 94.0434,100.9363 C94.0434,99.6133 94.2174,98.3233 94.5654,97.0673 C94.9124,95.8103 95.4504,94.6833 96.1804,93.6853 C96.9084,92.6873 97.8464,91.8853 98.9894,91.2793 C100.1344,90.6743 101.5014,90.3713 103.0944,90.3713 C103.9694,90.3713 104.8054,90.5003 105.6014,90.7573 C106.3974,91.0163 107.1264,91.3923 107.7884,91.8853 C108.4504,92.3783 109.0114,92.9903 109.4714,93.7193 C109.9304,94.4483 110.2614,95.2723 110.4634,96.1923 L112.7514,96.1923 C112.5944,94.9363 112.2184,93.8263 111.6244,92.8613 C111.0304,91.8973 110.2904,91.0833 109.4034,90.4213 C108.5174,89.7603 107.5304,89.2603 106.4424,88.9243 C105.3544,88.5873 104.2384,88.4193 103.0944,88.4193 C101.2104,88.4193 99.5564,88.7623 98.1314,89.4453 C96.7064,90.1303 95.5244,91.0493 94.5814,92.2053 C93.6404,93.3603 92.9334,94.6903 92.4624,96.1923 C91.9904,97.6953 91.7554,99.2763 91.7554,100.9363 C91.7554,102.5973 91.9904,104.1783 92.4624,105.6813 C92.9334,107.1843 93.6404,108.5063 94.5814,109.6513 C95.5244,110.7963 96.7064,111.7093 98.1314,112.3933 C99.5564,113.0783 101.2104,113.4193 103.0944,113.4193 C104.5074,113.4193 105.7924,113.1953 106.9474,112.7473 C108.1024,112.2983 109.1064,111.6593 109.9584,110.8293 C110.8114,109.9993 111.5064,108.9903 112.0454,107.8003 C112.5834,106.6113 112.9304,105.2773 113.0884,103.7963 L110.8004,103.7963 C110.6874,104.8723 110.4304,105.8773 110.0264,106.8083" id="Fill-14"></path>
                <path d="M129.6094,97.8076 C128.9134,96.9776 128.0554,96.3156 127.0354,95.8216 C126.0144,95.3286 124.8424,95.0816 123.5184,95.0816 C122.1954,95.0816 121.0234,95.3286 120.0034,95.8216 C118.9824,96.3156 118.1234,96.9776 117.4294,97.8076 C116.7334,98.6376 116.2054,99.6076 115.8474,100.7186 C115.4884,101.8286 115.3094,103.0126 115.3094,104.2676 C115.3094,105.5246 115.4884,106.7076 115.8474,107.8176 C116.2054,108.9276 116.7334,109.8986 117.4294,110.7276 C118.1234,111.5576 118.9824,112.2146 120.0034,112.6966 C121.0234,113.1786 122.1954,113.4196 123.5184,113.4196 C124.8424,113.4196 126.0144,113.1786 127.0354,112.6966 C128.0554,112.2146 128.9134,111.5576 129.6094,110.7276 C130.3044,109.8986 130.8314,108.9276 131.1904,107.8176 C131.5494,106.7076 131.7294,105.5246 131.7294,104.2676 C131.7294,103.0126 131.5494,101.8286 131.1904,100.7186 C130.8314,99.6076 130.3044,98.6376 129.6094,97.8076 M129.2224,106.9766 C128.9644,107.8626 128.5834,108.6536 128.0784,109.3486 C127.5744,110.0436 126.9394,110.6056 126.1774,111.0306 C125.4144,111.4576 124.5284,111.6706 123.5184,111.6706 C122.5094,111.6706 121.6234,111.4576 120.8604,111.0306 C120.0984,110.6056 119.4644,110.0436 118.9594,109.3486 C118.4554,108.6536 118.0734,107.8626 117.8164,106.9766 C117.5574,106.0906 117.4294,105.1876 117.4294,104.2676 C117.4294,103.3476 117.5574,102.4456 117.8164,101.5586 C118.0734,100.6736 118.4554,99.8816 118.9594,99.1866 C119.4644,98.4916 120.0984,97.9306 120.8604,97.5046 C121.6234,97.0786 122.5094,96.8646 123.5184,96.8646 C124.5284,96.8646 125.4144,97.0786 126.1774,97.5046 C126.9394,97.9306 127.5744,98.4916 128.0784,99.1866 C128.5834,99.8816 128.9644,100.6736 129.2224,101.5586 C129.4804,102.4456 129.6094,103.3476 129.6094,104.2676 C129.6094,105.1876 129.4804,106.0906 129.2224,106.9766" id="Fill-16"></path>
                <path d="M153.1287,95.0819 C151.9847,95.0819 150.9087,95.3619 149.8987,95.9229 C148.8887,96.4839 148.1267,97.3359 147.6107,98.4809 C147.2967,97.3359 146.6737,96.4839 145.7437,95.9229 C144.8127,95.3619 143.7747,95.0819 142.6307,95.0819 C141.2177,95.0819 140.0567,95.3849 139.1487,95.9899 C138.2397,96.5959 137.5047,97.4379 136.9437,98.5139 L136.8427,98.5139 L136.8427,95.5869 L134.8917,95.5869 L134.8917,112.9489 L137.0117,112.9489 L137.0117,103.2579 C137.0117,102.3389 137.1127,101.4919 137.3147,100.7179 C137.5167,99.9439 137.8237,99.2719 138.2397,98.6999 C138.6547,98.1269 139.1927,97.6789 139.8547,97.3529 C140.5167,97.0279 141.2957,96.8649 142.1937,96.8649 C142.8667,96.8649 143.4377,96.9779 143.9097,97.2019 C144.3807,97.4259 144.7557,97.7339 145.0367,98.1269 C145.3167,98.5199 145.5187,98.9789 145.6427,99.5059 C145.7657,100.0339 145.8277,100.5889 145.8277,101.1719 L145.8277,112.9489 L147.9477,112.9489 L147.9477,103.1239 C147.9477,102.3159 148.0197,101.5369 148.1657,100.7849 C148.3117,100.0339 148.5637,99.3659 148.9227,98.7829 C149.2807,98.1999 149.7647,97.7339 150.3697,97.3859 C150.9757,97.0389 151.7377,96.8649 152.6577,96.8649 C154.1827,96.8649 155.2487,97.2409 155.8547,97.9929 C156.4607,98.7439 156.7627,99.8379 156.7627,101.2729 L156.7627,112.9489 L158.8827,112.9489 L158.8827,101.1719 C158.8827,97.1119 156.9647,95.0819 153.1287,95.0819" id="Fill-18"></path>
                <polygon id="Fill-20" points="176.9178 88.9238 171.5008 105.8158 171.4328 105.8158 166.0838 88.9238 160.6658 88.9238 168.4378 112.9488 174.3938 112.9488 182.3688 88.9238"></polygon>
                <path d="M196.6856,98.2442 C195.9786,97.2802 195.0756,96.5122 193.9766,95.9392 C192.8776,95.3672 191.5876,95.0822 190.1076,95.0822 C188.7836,95.0822 187.5776,95.3172 186.4896,95.7882 C185.4016,96.2592 184.4656,96.9042 183.6806,97.7222 C182.8946,98.5422 182.2896,99.5112 181.8636,100.6332 C181.4376,101.7552 181.2246,102.9662 181.2246,104.2672 C181.2246,105.6132 181.4316,106.8482 181.8466,107.9682 C182.2616,109.0902 182.8506,110.0552 183.6136,110.8622 C184.3756,111.6702 185.3066,112.2922 186.4056,112.7292 C187.5046,113.1672 188.7386,113.3862 190.1076,113.3862 C192.0806,113.3862 193.7636,112.9372 195.1546,112.0402 C196.5446,111.1432 197.5776,109.6512 198.2506,107.5652 L194.0446,107.5652 C193.8866,108.1032 193.4606,108.6132 192.7656,109.0962 C192.0696,109.5782 191.2396,109.8192 190.2756,109.8192 C188.9296,109.8192 187.8976,109.4722 187.1796,108.7762 C186.4616,108.0812 186.0696,106.9592 186.0026,105.4112 L198.5526,105.4112 C198.6426,104.0652 198.5296,102.7752 198.2166,101.5412 C197.9026,100.3082 197.3916,99.2092 196.6856,98.2442" id="Fill-22"></path>
                <path d="M209.7916,95.3502 C209.2306,95.5302 208.7036,95.7832 208.2106,96.1082 C207.7166,96.4342 207.2786,96.8252 206.8976,97.2862 C206.5156,97.7462 206.2136,98.2442 205.9896,98.7822 L205.9226,98.7822 L205.9226,95.5522 L201.3796,95.5522 L201.3796,112.9482 L206.1576,112.9482 L206.1576,105.1092 C206.1576,104.3242 206.2356,103.5952 206.3936,102.9222 C206.5496,102.2492 206.8136,101.6602 207.1836,101.1552 C207.5536,100.6502 208.0416,100.2522 208.6476,99.9612 C209.2536,99.6702 209.9936,99.5232 210.8686,99.5232 C211.1596,99.5232 211.4626,99.5402 211.7766,99.5742 C212.0906,99.6072 212.3606,99.6462 212.5836,99.6922 L212.5836,95.2502 C212.2026,95.1382 211.8546,95.0822 211.5416,95.0822 C210.9356,95.0822 210.3526,95.1722 209.7916,95.3502" id="Fill-24"></path>
                <path d="M228.0279,103.9475 C227.5119,103.5775 226.9229,103.2805 226.2619,103.0565 C225.5999,102.8315 224.9209,102.6415 224.2259,102.4835 C223.5529,102.3275 222.8909,102.1815 222.2399,102.0465 C221.5899,101.9125 221.0119,101.7605 220.5079,101.5925 C220.0029,101.4245 219.5939,101.2055 219.2789,100.9365 C218.9649,100.6675 218.8089,100.3195 218.8089,99.8935 C218.8089,99.5345 218.8969,99.2485 219.0779,99.0355 C219.2569,98.8225 219.4759,98.6595 219.7339,98.5475 C219.9909,98.4365 220.2769,98.3625 220.5919,98.3285 C220.9049,98.2955 221.1969,98.2785 221.4659,98.2785 C222.3199,98.2785 223.0599,98.4415 223.6879,98.7665 C224.3159,99.0915 224.6629,99.7145 224.7309,100.6335 L229.2729,100.6335 C229.1829,99.5565 228.9079,98.6655 228.4489,97.9585 C227.9889,97.2525 227.4109,96.6855 226.7159,96.2595 C226.0199,95.8335 225.2299,95.5305 224.3439,95.3505 C223.4569,95.1725 222.5429,95.0815 221.6019,95.0815 C220.6599,95.0815 219.7389,95.1655 218.8419,95.3335 C217.9449,95.5025 217.1369,95.7935 216.4199,96.2085 C215.7009,96.6235 215.1239,97.1905 214.6859,97.9075 C214.2489,98.6265 214.0309,99.5465 214.0309,100.6675 C214.0309,101.4305 214.1869,102.0755 214.5019,102.6025 C214.8159,103.1285 215.2299,103.5675 215.7469,103.9145 C216.2629,104.2625 216.8509,104.5425 217.5129,104.7555 C218.1739,104.9695 218.8529,105.1545 219.5489,105.3115 C221.2529,105.6695 222.5829,106.0285 223.5359,106.3885 C224.4889,106.7465 224.9659,107.2845 224.9659,108.0025 C224.9659,108.4285 224.8649,108.7825 224.6629,109.0625 C224.4609,109.3435 224.2089,109.5675 223.9059,109.7355 C223.6039,109.9035 223.2669,110.0275 222.8969,110.1055 C222.5269,110.1835 222.1729,110.2235 221.8369,110.2235 C221.3659,110.2235 220.9119,110.1675 220.4739,110.0555 C220.0369,109.9425 219.6499,109.7685 219.3129,109.5335 C218.9769,109.2975 218.7019,108.9955 218.4889,108.6255 C218.2759,108.2555 218.1689,107.8115 218.1689,107.2965 L213.6269,107.2965 C213.6719,108.4625 213.9349,109.4315 214.4169,110.2065 C214.8999,110.9805 215.5159,111.6025 216.2679,112.0745 C217.0199,112.5445 217.8769,112.8815 218.8419,113.0835 C219.8069,113.2845 220.7939,113.3865 221.8029,113.3865 C222.7899,113.3865 223.7599,113.2905 224.7139,113.0995 C225.6669,112.9095 226.5139,112.5785 227.2539,112.1075 C227.9949,111.6365 228.5939,111.0145 229.0539,110.2405 C229.5139,109.4665 229.7439,108.5065 229.7439,107.3635 C229.7439,106.5555 229.5869,105.8775 229.2729,105.3275 C228.9589,104.7775 228.5439,104.3175 228.0279,103.9475" id="Fill-26"></path>
                <path d="M249.3609,100.4824 C248.9339,99.3494 248.3289,98.3854 247.5439,97.5884 C246.7579,96.7924 245.8109,96.1754 244.7009,95.7384 C243.5899,95.3004 242.3499,95.0824 240.9819,95.0824 C239.6139,95.0824 238.3799,95.3004 237.2809,95.7384 C236.1819,96.1754 235.2389,96.7924 234.4549,97.5884 C233.6689,98.3854 233.0639,99.3494 232.6379,100.4824 C232.2109,101.6154 231.9979,102.8774 231.9979,104.2674 C231.9979,105.6584 232.2109,106.9144 232.6379,108.0364 C233.0639,109.1584 233.6689,110.1174 234.4549,110.9134 C235.2389,111.7094 236.1819,112.3214 237.2809,112.7474 C238.3799,113.1734 239.6139,113.3864 240.9819,113.3864 C242.3499,113.3864 243.5899,113.1734 244.7009,112.7474 C245.8109,112.3214 246.7579,111.7094 247.5439,110.9134 C248.3289,110.1174 248.9339,109.1584 249.3609,108.0364 C249.7869,106.9144 249.9999,105.6584 249.9999,104.2674 C249.9999,102.8774 249.7869,101.6154 249.3609,100.4824" id="Fill-28"></path>
                <polygon id="Fill-30" points="99.1563 50.6138 104.7483 67.0558 104.8153 67.0558 110.1073 50.6138 117.5073 50.6138 117.5073 74.5238 112.5843 74.5238 112.5843 57.5798 112.5173 57.5798 106.6563 74.5238 102.6053 74.5238 96.7443 57.7458 96.6783 57.7458 96.6783 74.5238 91.7553 74.5238 91.7553 50.6138"></polygon>
                <path d="M121.7269,62.1166 C122.1499,60.9886 122.7539,60.0296 123.5349,59.2366 C124.3159,58.4436 125.2549,57.8296 126.3479,57.3946 C127.4409,56.9586 128.6689,56.7416 130.0309,56.7416 C131.3939,56.7416 132.6259,56.9586 133.7309,57.3946 C134.8369,57.8296 135.7789,58.4436 136.5619,59.2366 C137.3429,60.0296 137.9449,60.9886 138.3699,62.1166 C138.7929,63.2446 139.0059,64.4996 139.0059,65.8836 C139.0059,67.2676 138.7929,68.5186 138.3699,69.6346 C137.9449,70.7506 137.3429,71.7056 136.5619,72.4976 C135.7789,73.2906 134.8369,73.8986 133.7309,74.3226 C132.6259,74.7466 131.3939,74.9586 130.0309,74.9586 C128.6689,74.9586 127.4409,74.7466 126.3479,74.3226 C125.2549,73.8986 124.3159,73.2906 123.5349,72.4976 C122.7539,71.7056 122.1499,70.7506 121.7269,69.6346 C121.3019,68.5186 121.0909,67.2676 121.0909,65.8836 C121.0909,64.4996 121.3019,63.2446 121.7269,62.1166" id="Fill-32"></path>
                <path d="M154.3768,72.3137 C153.8178,73.2507 153.0868,73.9267 152.1828,74.3387 C151.2788,74.7517 150.2578,74.9587 149.1198,74.9587 C147.8238,74.9587 146.6858,74.7077 145.7028,74.2057 C144.7208,73.7027 143.9118,73.0227 143.2748,72.1627 C142.6388,71.3037 142.1588,70.3157 141.8358,69.1987 C141.5118,68.0837 141.3498,66.9217 141.3498,65.7167 C141.3498,64.5557 141.5118,63.4347 141.8358,62.3507 C142.1588,61.2677 142.6388,60.3137 143.2748,59.4877 C143.9118,58.6627 144.7098,57.9967 145.6688,57.4947 C146.6298,56.9937 147.7468,56.7417 149.0188,56.7417 C150.0438,56.7417 151.0228,56.9597 151.9488,57.3947 C152.8748,57.8297 153.6058,58.4717 154.1418,59.3197 L154.2098,59.3197 L154.2098,50.6137 L158.9638,50.6137 L158.9638,74.5237 L154.4438,74.5237 L154.4438,72.3137 L154.3768,72.3137 Z" id="Fill-34"></path>
                <path d="M162.3463,62.5354 C162.4133,61.4194 162.6913,60.4924 163.1823,59.7564 C163.6733,59.0194 164.2993,58.4284 165.0583,57.9814 C165.8173,57.5354 166.6713,57.2164 167.6193,57.0264 C168.5683,56.8374 169.5223,56.7414 170.4823,56.7414 C171.3543,56.7414 172.2343,56.8034 173.1283,56.9264 C174.0203,57.0494 174.8363,57.2894 175.5733,57.6454 C176.3093,58.0034 176.9113,58.4994 177.3813,59.1354 C177.8503,59.7724 178.0853,60.6154 178.0853,61.6644 L178.0853,70.6724 C178.0853,71.4534 178.1293,72.2024 178.2183,72.9154 C178.3073,73.6304 178.4643,74.1674 178.6873,74.5234 L173.8653,74.5234 C173.7753,74.2554 173.7023,73.9824 173.6483,73.7024 C173.5913,73.4244 173.5513,73.1394 173.5313,72.8494 C172.7703,73.6304 171.8783,74.1774 170.8513,74.4904 C169.8243,74.8024 168.7753,74.9584 167.7043,74.9584 C166.8773,74.9584 166.1073,74.8584 165.3923,74.6574 C164.6783,74.4564 164.0543,74.1444 163.5183,73.7194 C162.9823,73.2964 162.5633,72.7604 162.2623,72.1124 C161.9603,71.4654 161.8093,70.6944 161.8093,69.8024 C161.8093,68.8194 161.9823,68.0094 162.3283,67.3734 C162.6743,66.7374 163.1213,66.2304 163.6693,65.8504 C164.2153,65.4714 164.8403,65.1864 165.5443,64.9964 C166.2463,64.8064 166.9553,64.6564 167.6703,64.5434 C168.3843,64.4334 169.0873,64.3434 169.7793,64.2764 C170.4713,64.2094 171.0853,64.1094 171.6223,63.9754 C172.1583,63.8414 172.5813,63.6464 172.8943,63.3894 C173.2073,63.1324 173.3513,62.7594 173.3293,62.2674 C173.3293,61.7544 173.2453,61.3464 173.0783,61.0444 C172.9113,60.7434 172.6873,60.5094 172.4073,60.3424 C172.1293,60.1744 171.8053,60.0624 171.4373,60.0064 C171.0693,59.9514 170.6723,59.9224 170.2493,59.9224 C169.3113,59.9224 168.5743,60.1244 168.0383,60.5264 C167.5033,60.9274 167.1893,61.5974 167.1003,62.5354 L162.3463,62.5354 Z" id="Fill-36"></path>
            </g>
        </g>
    </g>
</svg>