<svg width="17" height="16" viewBox="0 0 17 16" fill="none" xmlns="http://www.w3.org/2000/svg">
<path fill-rule="evenodd" clip-rule="evenodd" d="M7.56977 1.1497H9.43023C11.7392 1.1497 13.6388 2.95474 13.8714 5.26948H13.6163C13.0512 5.26948 12.593 5.74132 12.593 6.32337V10.1557C12.593 10.7378 13.0512 11.2096 13.6163 11.2096H14.0814C15.4172 11.2096 16.5 10.0943 16.5 8.71859V7.7605C16.5 6.72147 15.8824 5.83103 15.0046 5.45738C14.8574 2.41784 12.418 0 9.43023 0H7.56977C4.58205 0 2.14262 2.41784 1.99541 5.45738C1.11764 5.83103 0.5 6.72147 0.5 7.7605V8.71859C0.5 9.83031 1.20709 10.7719 2.18333 11.0924C2.57326 12.5699 3.52094 13.8108 4.77907 14.5603V14.7425C4.77907 15.437 5.33972 16 6.03131 16H8.178C8.86959 16 9.43023 15.437 9.43023 14.7425V14.3832C9.43023 13.6887 8.86959 13.1257 8.178 13.1257H6.03131C5.70094 13.1257 5.40046 13.2542 5.1767 13.4641C4.36851 12.9347 3.73678 12.145 3.39276 11.2096C3.95373 11.2046 4.40697 10.7347 4.40697 10.1557V6.32337C4.40697 5.74132 3.94885 5.26948 3.38372 5.26948H3.12859C3.3612 2.95474 5.26082 1.1497 7.56977 1.1497ZM8.35689 14.3832C8.35689 14.284 8.27679 14.2036 8.178 14.2036H6.03131C5.93251 14.2036 5.85242 14.284 5.85242 14.3832V14.7425C5.85242 14.8417 5.93251 14.9222 6.03131 14.9222H8.178C8.27679 14.9222 8.35689 14.8417 8.35689 14.7425V14.3832ZM2.9186 6.41918C2.19935 6.41918 1.61628 7.01971 1.61628 7.7605V8.71859C1.61628 9.45938 2.19935 10.0599 2.9186 10.0599H3.2907V6.41918H2.9186ZM14.0814 6.41918C14.8007 6.41918 15.3837 7.01971 15.3837 7.7605V8.71859C15.3837 9.45938 14.8007 10.0599 14.0814 10.0599H13.7093V6.41918H14.0814Z" fill="black"/>
</svg>
