<svg width="22" height="19" viewBox="0 0 22 19" fill="none" xmlns="http://www.w3.org/2000/svg">
<path fill-rule="evenodd" clip-rule="evenodd" d="M1.60429 0C0.721015 4.13193e-06 0 0.70271 0 1.57495V12.2122C0 13.9214 1.07429 15.3805 2.5934 15.9868C2.57312 16.1167 2.56261 16.2498 2.56261 16.3852C2.56261 17.8339 3.76334 19 5.23413 19C6.70492 19 7.90565 17.8339 7.90565 16.3852C7.90565 16.3525 7.90504 16.3199 7.90382 16.2875H14.0962C14.095 16.3199 14.0943 16.3525 14.0943 16.3852C14.0943 17.8339 15.2951 19 16.7659 19C18.2367 19 19.4374 17.8339 19.4374 16.3852C19.4374 16.3043 19.4336 16.2244 19.4263 16.1454H20.6292C21.3844 16.1454 22 15.5444 22 14.7989V7.06275C22 5.62193 21.2915 4.0673 19.9487 3.34247C19.6725 3.19334 19.3884 3.12981 19.162 3.09439L16.4449 2.66925C16.1502 2.62314 15.8618 2.64143 15.5935 2.71289V1.57496C15.5935 0.702714 14.8725 8.09446e-06 13.9892 7.45368e-06L1.60429 0ZM1.49913 1.57495C1.49913 1.52166 1.54414 1.47424 1.6043 1.47424L13.9892 1.47424C14.0493 1.47424 14.0943 1.52167 14.0943 1.57496L14.0944 14.8133H7.36932C6.88122 14.1792 6.10538 13.7703 5.23413 13.7703C4.43989 13.7703 3.72493 14.1101 3.235 14.6505C2.21894 14.2814 1.49913 13.3263 1.49913 12.2122V1.57495ZM15.5936 4.63683C15.5936 4.32043 15.8829 4.07409 16.2094 4.12517L18.9265 4.55031C19.078 4.57402 19.1686 4.60307 19.2273 4.6348C19.9782 5.04014 20.5009 6.02116 20.5009 7.06275V14.6711H18.7835C18.2932 14.1188 17.5702 13.7703 16.7659 13.7703C16.3458 13.7703 15.9478 13.8654 15.5936 14.035V4.63683ZM4.06174 16.3852C4.06174 15.7597 4.58208 15.2445 5.23413 15.2445C5.88618 15.2445 6.40652 15.7597 6.40652 16.3852C6.40652 17.0106 5.88618 17.5258 5.23413 17.5258C4.58208 17.5258 4.06174 17.0106 4.06174 16.3852ZM15.5935 16.3852C15.5935 15.7597 16.1138 15.2445 16.7659 15.2445C17.4179 15.2445 17.9383 15.7597 17.9383 16.3852C17.9383 17.0106 17.4179 17.5258 16.7659 17.5258C16.1138 17.5258 15.5935 17.0106 15.5935 16.3852Z" fill="black"/>
</svg>
